# xmcd CD database file generated by Grip 3.2.0
# 
# Track frame offsets:
#       150
#       16170
#       34159
#       50862
# 
# Disc length: 904 seconds
# 
# Revision: 9
# Processed by: cddbd v1.5.2PL0 Copyright (c) Steve Scherf et al.
# Submitted via: Grip 3.2.0
# 
DISCID=2d038604
DTITLE=I Want The Moon - Downfall
DYEAR=2013
DGENRE=Punk
TTITLE0=Alter The Emptiness
TTITLE1=Downfall
TTITLE2=A Point In Time
TTITLE3=La Guerre Est Déclarée
EXTD=
EXTT0=
EXTT1=
EXTT2=
EXTT3=
PLAYORDER=
